<svg width="876" height="760" xmlns="http://www.w3.org/2000/svg"><g fill="none" fill-rule="evenodd" filter="url(#a)"><path d="M173.286 346.278c37.75 237.363 436.799-108.302 173.285-173.139C83.058 108.302 268.99 0 173.286 0S0 77.517 0 173.14c0 95.621 135.536-64.225 173.286 173.138z" transform="matrix(-1 0 0 1 655 193)" fill="#ff7a00"/><g transform="translate(432)"><path d="M219.833 343c94.993 0 172-77.007 172-172s-87.598-167.172-172-135.18c-84.403 31.992-27 113.196-172 135.18-145 21.984 77.007 172 172 172z" fill="#ff7a00" transform="matrix(-1 0 0 1 391.833 0)"/><circle fill-opacity=".72" fill="#ff7a00" cx="183" cy="40" r="40"/><circle fill-opacity=".48" fill="#ff7a00" filter="url(#e)" cx="298" cy="87" r="16"/></g><path d="M392.286 539.278c37.75 237.363 436.799-108.302 173.285-173.139C302.058 301.302 487.99 193 392.286 193S219 270.517 219 366.14c0 95.621 135.536-64.225 173.286 173.138z" fill="#ff7a00"/><path fill="#C1C3DA" d="M697.608 50l-3.624 1.667-.984 3.53 1.158 3.36 3.45 1.443 3.249-1.639L703 55.196l-1.62-3.674z"/><path fill-opacity=".64" fill="#ff7a00" d="M683.304 72l-1.812.833-.492 1.765.579 1.68 1.725.722 1.624-.82L686 74.599l-.81-1.837z"/><path fill-opacity=".64" fill="#ff9500" d="M729.686 119l-2.899 1.334-.787 2.823.926 2.688 2.76 1.155 2.6-1.31 1.714-2.533-1.295-2.94z"/></g></svg>
