<svg width="876" height="764" xmlns="http://www.w3.org/2000/svg"><g fill="none" fill-rule="evenodd" filter="url(#a)"><path d="M173.286 346.278c37.75 237.363 436.799-108.302 173.285-173.139C83.058 108.302 268.99 0 173.286 0S0 77.517 0 173.14c0 95.621 135.536-64.225 173.286 173.138z" transform="translate(217 195)" fill="#ff7a00"/><path d="M251 344c94.993 0 172-77.007 172-172S345.993 0 251 0s46.934 178.387-172 172c-218.934-6.387 77.007 172 172 172z" transform="translate(19)" fill="#ff7a00"/><path d="M173.286 346.278c37.75 237.363 436.799-108.302 173.285-173.139C83.058 108.302 268.99 0 173.286 0S0 77.517 0 173.14c0 95.621 135.536-64.225 173.286 173.138z" transform="matrix(-1 0 0 1 653 195)" fill="#ff7a00"/><path fill="#C1C3DA" d="M640.608 179l-3.624 1.667-.984 3.53 1.158 3.36 3.45 1.443 3.249-1.639 2.143-3.165-1.62-3.674z"/><path fill-opacity=".64" fill="#ff7a00" d="M642.304 218l-1.812.833-.492 1.765.579 1.68 1.725.722 1.624-.82 1.072-1.582-.81-1.837z"/><path fill-opacity=".64" fill="#ffaa00" d="M614.686 200l-2.899 1.334-.787 2.823.926 2.688 2.76 1.155 2.6-1.31 1.714-2.533-1.295-2.94z"/></g></svg>
